<mxfile host="app.diagrams.net" modified="2024-05-27T12:14:13.068Z" agent="Mozilla/5.0 (X11; Linux x86_64; rv:109.0) Gecko/20100101 Firefox/112.0" version="24.4.9" etag="GtcpDf--hWa1bV1oQUkh" type="github">
  <diagram name="PÃ¡gina-1" id="aHJ9rJdX8gIO0V_5wAV9">
    <mxGraphModel>
      <root>
        <mxCell id="0" />
        <mxCell id="1" parent="0" />
      </root>
    </mxGraphModel>
  </diagram>
</mxfile>
